<svg width="20" height="20" viewBox="0 0 20 20" fill="none" xmlns="http://www.w3.org/2000/svg">
<g clip-path="url(#clip0_58_770)">
<path d="M11.8626 4.18738C9.97513 9.96515 6.48906 13.3386 1.13547 15.1378C0.817899 14.4728 0.437387 13.8448 0 13.2637C5.16932 11.7965 8.38147 8.82459 9.96016 3.58765L11.8626 4.18738Z" fill="black"/>
<path d="M13.9592 2.54883H0.273926V4.42835H13.9592V2.54883Z" fill="black"/>
<path d="M7.998 0H6.15039V3.70013H7.998V0Z" fill="black"/>
<path d="M12.6147 7.36816H14.4423L20.0001 20.0001H17.8138L16.3597 16.6908H10.6625L9.22819 20.0001H7.05688L12.6147 7.36816ZM11.4692 14.8648H15.5529L13.511 10.2008L11.4692 14.8648Z" fill="black"/>
<path d="M9.61654 11.2022C7.02814 9.48069 5.09615 6.82233 4.1683 3.70557L2.37549 4.28922C3.65537 8.08574 5.50301 11.0041 8.32173 12.9693L9.61654 11.2022Z" fill="black"/>
</g>
<defs>
<clipPath id="clip0_58_770">
<rect width="20" height="20" fill="white"/>
</clipPath>
</defs>
</svg>
