<svg width="1020" height="90" viewBox="0 0 1020 90" fill="none" xmlns="http://www.w3.org/2000/svg">
<g clip-path="url(#clip0_58_996)" filter="url(#filter0_d_58_996)">
<path d="M44.4574 22.5949V73.6524H25.5463V22.5949H10V8.17578H60.0037V22.5949H44.4574Z" fill="black"/>
<path d="M130.808 73.6522H107.255L89.2612 48.4714V73.6522H70.3501V8.17562H99.8052C103.425 8.11364 107.026 8.66255 110.421 9.79392C113.144 10.7156 115.611 12.1603 117.65 14.0273C119.688 15.8944 121.25 18.1389 122.225 20.6043C123.23 23.1105 123.735 25.7564 123.718 28.4206C123.942 32.7526 122.527 37.025 119.706 40.5416C116.703 43.8164 112.521 46.0433 107.884 46.8369L130.808 73.6522ZM89.1891 37.4346H92.7878C95.8303 37.6165 98.8544 36.8882 101.389 35.3632C102.319 34.6046 103.063 33.6793 103.572 32.6467C104.081 31.614 104.344 30.497 104.344 29.3674C104.344 28.2378 104.081 27.1208 103.572 26.0881C103.063 25.0555 102.319 24.13 101.389 23.3715C98.8566 21.8408 95.8324 21.1069 92.7878 21.284H89.1891V37.4346Z" fill="black"/>
<path d="M135.9 40.9142C135.861 36.2462 136.884 31.6202 138.905 27.3204C140.848 23.1499 143.71 19.3765 147.319 16.228C150.928 13.0795 155.209 10.6212 159.903 9.00117C170.344 5.48236 181.849 5.48236 192.291 9.00117C197.058 10.6507 201.408 13.1435 205.084 16.3321C208.657 19.4585 211.502 23.1941 213.451 27.3204C217.434 36.0289 217.434 45.7993 213.451 54.5078C211.502 58.6341 208.657 62.3697 205.084 65.4961C201.408 68.6847 197.058 71.1776 192.291 72.8271C181.849 76.3459 170.344 76.3459 159.903 72.8271C152.773 70.3275 146.659 65.9356 142.371 60.2353C138.084 54.5349 135.826 47.796 135.9 40.9142V40.9142ZM155.692 40.9142C155.667 43.3934 156.231 45.8488 157.348 48.1156C158.401 50.2677 159.903 52.2181 161.774 53.8606C163.654 55.4845 165.866 56.765 168.288 57.6312C172.019 58.982 176.103 59.3447 180.056 58.6766C184.009 58.0085 187.668 56.3375 190.6 53.8606C192.503 52.2295 194.032 50.2774 195.098 48.1156C196.752 44.753 197.207 41.0123 196.402 37.4076C195.596 33.8028 193.569 30.511 190.6 27.984C188.703 26.3523 186.472 25.0662 184.032 24.197C178.973 22.4068 173.347 22.4068 168.288 24.197C165.861 25.0629 163.648 26.3497 161.774 27.984C159.9 29.6175 158.397 31.5631 157.348 33.7127C156.231 35.9795 155.667 38.435 155.692 40.9142V40.9142Z" fill="black"/>
<path d="M230.743 73.6524V8.17578H249.672L284.615 48.2127V8.17578H303.454V73.6524H284.615L249.672 33.5508V73.5876L230.743 73.6524Z" fill="black"/>
<path d="M375.212 8.17578L387.807 50.462L403.245 8.17578H418.306L433.762 50.462L446.357 8.17578H466.15L444.306 73.6524H424.999L410.712 35.7031L396.426 73.6524H377.119L355.383 8.17578H375.212Z" fill="black"/>
<path d="M470.63 40.9142C470.52 34.0272 472.76 27.2752 477.049 21.5689C481.338 15.8626 487.469 11.4762 494.615 9.00119C505.09 5.4625 516.637 5.4625 527.112 9.00119C531.874 10.6585 536.223 13.1504 539.905 16.3321C543.531 19.5414 546.412 23.3676 548.377 27.5879C550.343 31.8083 551.356 36.3385 551.356 40.9142C551.356 45.49 550.343 50.02 548.377 54.2403C546.412 58.4607 543.531 62.2869 539.905 65.4961C536.223 68.6779 531.874 71.1698 527.112 72.8271C516.637 76.3658 505.09 76.3658 494.615 72.8271C487.483 70.3326 481.367 65.9415 477.081 60.2396C472.796 54.5377 470.546 47.7962 470.63 40.9142V40.9142ZM490.423 40.9142C490.391 43.3923 490.95 45.8477 492.061 48.1156C493.12 50.2685 494.629 52.2188 496.505 53.8607C498.379 55.4911 500.592 56.7725 503.018 57.6312C506.75 58.982 510.833 59.3447 514.787 58.6766C518.74 58.0085 522.398 56.3376 525.33 53.8607C527.223 52.2246 528.745 50.2734 529.811 48.1156C530.891 45.839 531.447 43.3894 531.447 40.9142C531.447 38.4391 530.891 35.9893 529.811 33.7127C528.749 31.5576 527.226 29.6113 525.33 27.984C523.431 26.3555 521.201 25.0699 518.763 24.1971C513.703 22.4069 508.078 22.4069 503.018 24.1971C500.587 25.0548 498.373 26.3427 496.505 27.984C494.625 29.6169 493.116 31.5624 492.061 33.7127C490.95 35.9806 490.391 38.4362 490.423 40.9142Z" fill="black"/>
<path d="M626.039 73.6523H602.486L584.493 48.4714V73.6523H565.582V8.17563H595.019C598.645 8.11354 602.251 8.66243 605.653 9.79394C608.468 10.7569 611.021 12.2526 613.138 14.1797C615.096 16.0383 616.603 18.2427 617.564 20.6529C618.578 23.1571 619.084 25.8044 619.058 28.4692C619.279 32.7986 617.872 37.0687 615.063 40.5903C612.054 43.8661 607.866 46.0929 603.224 46.8855L626.039 73.6523ZM584.421 37.4347H588.019C591.062 37.6165 594.086 36.8882 596.62 35.3632C597.551 34.6047 598.294 33.6794 598.803 32.6467C599.312 31.6141 599.575 30.497 599.575 29.3674C599.575 28.2379 599.312 27.1208 598.803 26.0882C598.294 25.0555 597.551 24.13 596.62 23.3715C594.088 21.8408 591.064 21.1069 588.019 21.284H584.421V37.4347Z" fill="black"/>
<path d="M654.955 8.17578V59.2333H677.645V73.6524H636.026V8.17578H654.955Z" fill="black"/>
<path d="M688.62 8.17569H716.618C721.433 8.15328 726.197 9.06983 730.581 10.8621C734.832 12.6074 738.692 15.0371 741.971 18.0313C745.237 21.0369 747.838 24.5736 749.636 28.4531C751.47 32.3861 752.415 36.6085 752.415 40.8736C752.415 45.1387 751.47 49.3609 749.636 53.2939C747.856 57.1838 745.267 60.7323 742.007 63.7483C738.743 66.7712 734.88 69.2191 730.617 70.9659C726.204 72.7652 721.409 73.6818 716.564 73.6523H688.566L688.62 8.17569ZM707.55 59.2332H711.886C714.891 59.282 717.878 58.8095 720.685 57.8415C723.127 56.9896 725.346 55.6889 727.198 54.0223C728.983 52.3732 730.363 50.4047 731.247 48.2448C732.208 45.8986 732.683 43.4143 732.65 40.9141C732.672 38.421 732.178 35.9459 731.193 33.6155C730.294 31.4412 728.896 29.4615 727.09 27.8057C725.241 26.1357 723.022 24.8345 720.577 23.9865C717.807 23.021 714.856 22.5484 711.886 22.5948H707.55V59.2332Z" fill="black"/>
<path d="M858.514 30.0553C856.622 27.8063 854.173 25.9846 851.362 24.7346C848.551 23.4846 845.455 22.8408 842.32 22.854C839.621 22.8335 836.946 23.307 834.457 24.2457C832.127 25.1234 830.011 26.4045 828.231 28.0163C826.465 29.657 825.071 31.592 824.128 33.7127C823.121 35.9765 822.614 38.3951 822.635 40.8333C822.609 43.2981 823.116 45.7439 824.128 48.0346C825.074 50.1628 826.479 52.1018 828.26 53.7404C830.042 55.3789 832.166 56.6847 834.511 57.5827C836.947 58.5271 839.577 59.0012 842.23 58.9744C845.342 58.926 848.407 58.2819 851.221 57.0848C854.035 55.8878 856.534 54.1652 858.55 52.032V72.1798L856.625 72.7785C853.984 73.6517 851.271 74.3335 848.509 74.8176C846.062 75.2514 843.573 75.4736 841.078 75.4812C836.138 75.4863 831.246 74.6116 826.684 72.9079C822.148 71.2395 818.017 68.7937 814.52 65.7066C810.959 62.5445 808.096 58.8053 806.081 54.686C803.998 50.2911 802.923 45.5625 802.923 40.7847C802.923 36.0069 803.998 31.2785 806.081 26.8835C809.116 20.7689 814.054 15.5756 820.3 11.9312C826.545 8.28684 833.831 6.34726 841.276 6.34718C844.15 6.34524 847.015 6.62197 849.823 7.17253C852.848 7.78772 855.806 8.64911 858.658 9.74577L858.514 30.0553Z" fill="black"/>
<path d="M892.521 8.17578V43.7784C892.521 45.688 892.521 47.6461 892.755 49.6367C892.882 51.5121 893.375 53.353 894.213 55.0743C895.019 56.698 896.339 58.0715 898.009 59.0229C900.248 60.1414 902.793 60.6688 905.351 60.5442C907.897 60.6761 910.433 60.148 912.656 59.0229C914.308 58.0527 915.624 56.6845 916.453 55.0743C917.325 53.3612 917.837 51.5175 917.964 49.6367C918.108 47.6461 918.198 45.688 918.198 43.7784V8.17578H937.019V46.1251C937.019 56.3204 934.428 63.7592 929.246 68.4415C924.064 73.1238 916.099 75.4703 905.351 75.4811C894.555 75.4811 886.572 73.1346 881.402 68.4415C876.231 63.7484 873.628 56.3096 873.592 46.1251V8.17578H892.521Z" fill="black"/>
<path d="M973.509 73.6524H954.58V8.17578H984.719C992.888 8.17578 999.144 10.0854 1003.49 13.9046C1007.83 17.7238 1010 23.1182 1010 30.0877C1010 37.0463 1007.83 42.4407 1003.49 46.2707C999.144 50.1006 992.888 52.0103 984.719 51.9995H973.509V73.6524ZM973.509 38.2278H979.789C986.735 38.2278 990.207 35.4927 990.207 30.0553C990.207 24.6178 986.735 21.9637 979.789 21.9637H973.509V38.2278Z" fill="black"/>
</g>
<defs>
<filter id="filter0_d_58_996" x="0" y="0.347168" width="1020" height="89.1177" filterUnits="userSpaceOnUse" color-interpolation-filters="sRGB">
<feFlood flood-opacity="0" result="BackgroundImageFix"/>
<feColorMatrix in="SourceAlpha" type="matrix" values="0 0 0 0 0 0 0 0 0 0 0 0 0 0 0 0 0 0 127 0" result="hardAlpha"/>
<feOffset dy="4"/>
<feGaussianBlur stdDeviation="5"/>
<feComposite in2="hardAlpha" operator="out"/>
<feColorMatrix type="matrix" values="0 0 0 0 0 0 0 0 0 0 0 0 0 0 0 0 0 0 0.1 0"/>
<feBlend mode="normal" in2="BackgroundImageFix" result="effect1_dropShadow_58_996"/>
<feBlend mode="normal" in="SourceGraphic" in2="effect1_dropShadow_58_996" result="shape"/>
</filter>
<clipPath id="clip0_58_996">
<rect width="1000" height="69.1177" fill="white" transform="translate(10 6.34717)"/>
</clipPath>
</defs>
</svg>
